<?xml version="1.0" encoding="UTF-8" standalone="no"?>
<svg
   xmlns:dc="http://purl.org/dc/elements/1.1/"
   xmlns:cc="http://creativecommons.org/ns#"
   xmlns:rdf="http://www.w3.org/1999/02/22-rdf-syntax-ns#"
   xmlns:svg="http://www.w3.org/2000/svg"
   xmlns="http://www.w3.org/2000/svg"
   xmlns:sodipodi="http://sodipodi.sourceforge.net/DTD/sodipodi-0.dtd"
   xmlns:inkscape="http://www.inkscape.org/namespaces/inkscape"
   version="1.1"
   id="svg867"
   width="298.5"
   height="688"
   viewBox="0 0 298.5 688"
   sodipodi:docname="logo.svg"
   inkscape:version="1.0 (4035a4fb49, 2020-05-01)">
  <metadata
     id="metadata873">
    <rdf:RDF>
      <cc:Work
         rdf:about="">
        <dc:format>image/svg+xml</dc:format>
        <dc:type
           rdf:resource="http://purl.org/dc/dcmitype/StillImage" />
        <dc:title></dc:title>
      </cc:Work>
    </rdf:RDF>
  </metadata>
  <defs
     id="defs871" />
  <sodipodi:namedview
     inkscape:document-rotation="0"
     pagecolor="#ffffff"
     bordercolor="#666666"
     borderopacity="1"
     objecttolerance="10"
     gridtolerance="10"
     guidetolerance="10"
     inkscape:pageopacity="0"
     inkscape:pageshadow="2"
     inkscape:window-width="1920"
     inkscape:window-height="1080"
     id="namedview869"
     showgrid="false"
     inkscape:snap-global="true"
     inkscape:zoom="1"
     inkscape:cx="176.08138"
     inkscape:cy="231.80925"
     inkscape:window-x="1920"
     inkscape:window-y="0"
     inkscape:window-maximized="1"
     inkscape:current-layer="g875" />
  <g
     inkscape:groupmode="layer"
     inkscape:label="Image"
     id="g875">
    <path
       style="fill:#000000"
       d="m 55.230224,687.05606 c -0.29529,-0.4778 -12.68647,-34.1665 -27.535949,-74.8637 -14.84949,-40.6972 -27.30419046,-74.7563 -27.67712046,-75.687 -0.61458,-1.5337 15.27866046,-19.2956 48.59438946,-54.3079 l 4.75772,-5 4.08687,-27 c 4.87041,-32.1765 8.12877,-49.822 12.17092,-65.9111 6.833724,-27.2006 12.065644,-39.8121 19.184004,-46.2431 10.68037,-9.6491 46.299272,-20.5688 71.864462,-22.0315 l 11.10575,-0.6354 -0.65393,-9.5895 c -0.35967,-5.2741 -0.94121,-13.1429 -1.29233,-17.4861 l -0.63838,-7.8967 -2.59399,3.0947 c -1.4267,1.702 -4.99041,4.6855 -7.91937,6.6298 -15.66417,10.3983 -38.49279,10.1707 -65.174622,-0.6499 -14.06394,-5.7035 -40.000004,-18.1696 -40.000004,-19.2259 0,-2.048 15.03172,-15.6199 23.100724,-20.8573 18.37795,-11.9287 31.872192,-16.7357 49.033702,-17.4671 9.88752,-0.4214 12.66528,-0.1823 18.5,1.5929 8.01154,2.4374 14.0371,6.5706 19.02004,13.0467 l 3.56211,4.6295 -0.72118,-12.5 c -0.39664,-6.875 -0.88033,-12.7702 -1.07486,-13.1004 -0.19453,-0.3302 -3.63123,-0.8855 -7.63711,-1.2339 -7.13069,-0.6202 -24.37443,-4.4103 -30.24221,-6.6471 l -2.9588,-1.1278 7.35741,-3.9923 c 18.69796,-10.1457 37.7575,-26.1072 42.96164,-35.9784 2.32937,-4.4183 2.66929,-4.6366 11.32264,-7.2709 22.61389,-6.8842 54.85428,-25.28087 80.72448,-46.06207 5.1967,-4.1745 9.7649,-7.2518 10.1516,-6.8385 1.8102,1.9349 4.3069,17.4967 4.292,26.7514 -0.025,15.35557 -4.5138,28.95357 -14.3302,43.40877 -14.4845,21.3293 -33.2801,30.3747 -76.31198,36.7253 l -11.75,1.734 0.0658,3.566 c 0.15719,8.5132 2.62665,26.493 3.37403,24.5659 4.33475,-11.177 10.86652,-19.0648 19.38661,-23.4114 17.90131,-9.1326 47.58544,-5.9148 74.17354,8.0404 8.8637,4.6523 22.0109,14.006 21.9914,15.646 -0.016,1.3523 -33.4319,22.6289 -43.8962,27.9497 -17.2089,8.7503 -30.19688,11.7829 -43.50503,10.158 -8.07945,-0.9865 -18.59464,-5.5531 -23.34019,-10.1362 -3.93741,-3.8027 -3.82987,-5.1631 -1.43455,18.146 1.26175,12.2782 2.06103,16.5926 3.18455,17.1898 0.825,0.4385 4.06342,1.9135 7.1965,3.2777 10.96172,4.773 16.57545,12.541 24.67203,34.14 8.29689,22.1332 11.68439,40.8476 8.69089,48.0121 -4.48213,10.7272 -12.99486,13.7627 -26.70408,9.5221 -12.05363,-3.7285 -29.64563,-17.8234 -35.97792,-28.826 l -2.16833,-3.7676 -5.60455,1.7207 c -3.0825,0.9464 -6.84395,1.9813 -8.35878,2.2999 l -2.75424,0.5791 3.07238,6.0863 c 5.28832,10.4761 7.17187,19.6038 7.1964,34.8734 0.0328,20.3959 -4.74464,39.6992 -15.31435,61.8786 -2.72023,5.7082 -4.94591,10.6154 -4.94591,10.905 0,0.2895 0.95472,-0.3308 2.12159,-1.3786 5.86704,-5.268 17.22794,-26.2307 23.9245,-44.1444 1.89965,-5.0817 3.89848,-9.096 4.44184,-8.9207 2.57846,0.8319 10.63293,14.7985 13.3564,23.1601 3.75973,11.5432 5.19739,21.3752 6.00511,41.0679 l 0.65056,15.8611 26.75,12.0188 c 14.71248,6.6104 26.74998,12.5637 26.74998,13.2295 0,0.6659 -4.4226,5.6234 -9.8281,11.0167 -19.56134,19.5175 -41.09524,28.7667 -72.4241,31.1076 l -9.34826,0.6984 -38.8245,40 c -53.036646,54.6425 -55.241946,56.848 -55.853446,55.8586 z M 254.00253,546.38686 c -1.0966,-0.6397 -15.0439,-7.0678 -30.99388,-14.2847 l -29,-13.1216 -0.28541,-9.575 -0.28541,-9.5749 4.28541,-0.5715 c 18.39009,-2.4525 54.01089,-5.7591 61.78539,-5.7354 15.5603,0.047 24.1039,3.8283 28.5172,12.6201 4.254,8.4745 2.9552,20.3125 -3.0996,28.2506 -5.623,7.3721 -25.578,15.1108 -30.9237,11.9924 z m -60.80565,-54.4394 c -0.2364,-0.4125 -0.73939,-4.0042 -1.11776,-7.9815 -0.37836,-3.9774 -1.81404,-11.8524 -3.19039,-17.5 -1.37635,-5.6477 -2.86652,-12.1793 -3.31149,-14.5149 l -0.80903,-4.2464 3.62022,-0.9697 c 7.88304,-2.1116 18.66612,-4.0644 41.2717,-7.4744 23.9732,-3.6163 38.2129,-4.4229 44.9662,-2.547 9.8538,2.7371 14.9791,9.9401 15.6793,22.0358 0.8977,15.5085 -4.8152,22.6838 -21.0257,26.4077 -7.4132,1.703 -61.49259,7.5404 -69.85604,7.5404 -3.18846,0 -5.99062,-0.3375 -6.22701,-0.75 z m -20.93522,-72.6969 c -9.66978,-19.3927 -10.5314,-21.5531 -8.5961,-21.5531 2.88394,0 12.55878,5.6095 22.34309,12.9546 4.4,3.3031 10.25,6.7956 13,7.7611 7.1624,2.5148 18.78279,2.3051 24,-0.4331 11.10548,-5.8286 15.58358,-17.565 12.59498,-33.0092 -0.9917,-5.1248 -1.8385,-4.7789 15.405,-6.2922 20.4294,-1.7929 30.6902,0.8157 36.249,9.2156 2.567,3.8789 2.7511,4.8666 2.7511,14.7569 0,9.3879 -0.2903,11.1638 -2.5392,15.5338 -3.6532,7.0988 -8.308,9.2324 -24.0422,11.02 -6.8303,0.7761 -25.4687,3.4133 -41.41868,5.8605 -15.95,2.4472 -31.25,4.7394 -34,5.0938 l -5,0.6444 z m 57.47737,-56.7972 c -5.18859,-16.1092 -11.21002,-29.9027 -15.2464,-34.9254 l -3.00259,-3.7363 3.2593,-0.5536 c 1.79262,-0.3044 11.80931,-1.3994 22.25929,-2.4334 21.468,-2.124 29.4443,-1.659 37.8526,2.2066 11.4545,5.2662 15.6475,11.42 15.6475,22.9649 0,9.9829 -2.1384,16.7577 -6.4977,20.5851 -4.5147,3.964 -7.6063,4.6929 -28.0024,6.6021 -9.35,0.8753 -18.125,1.8061 -19.5,2.0686 -2.4071,0.4595 -2.6585,-0.015 -6.7696,-12.7786 z M 92.508648,207.32896 c -19.257284,-4.4748 -35.380424,-13.2612 -45.071944,-24.5623 -4.72256,-5.5069 -10.23935,-16.5438 -12.03091,-24.0692 -1.92482,-8.0851 -1.67064,-27.86517 0.48188,-37.49997 2.4184,-10.8247 8.27289,-22.599297 15.29919,-30.769697 l 5.82178,-6.7698 1.21516,9.7698 c 4.15669,33.419397 10.85321,48.269697 21.766514,48.269697 2.74925,0 3.72263,0.78 7.10211,5.69117 8.38023,12.1785 22.621142,23.9969 34.083362,28.2855 9.52316,3.5631 26.84452,6.0648 35.42473,5.1165 4.07447,-0.4503 7.52845,-0.7227 7.67551,-0.6053 0.14706,0.1175 -3.27178,3.5949 -7.59742,7.7275 -8.8151,8.4219 -18.49111,14.5614 -28.16996,17.874 -7.97203,2.7285 -27.32662,3.5575 -36.000002,1.5421 z m 39.500002,-38.2904 c -11.7677,-2.5121 -23.33453,-9.7038 -30.19178,-18.7718 -9.074262,-11.99977 -11.898512,-21.38757 -11.001562,-36.56927 0.46953,-7.9472 2.9356,-19.999997 4.09213,-19.999997 0.17672,0 6.346792,2.8959 13.711262,6.435197 18.61305,8.9454 28.34845,11.7025 43.46682,12.3097 10.11023,0.4061 13.44853,0.139 20.5,-1.6398 10.36599,-2.6149 23.78358,-9.209 34.57186,-16.990297 l 8.14872,-5.8775 0.60128,3.0064 c 1.14687,5.7344 0.59352,20.997697 -0.98292,27.111997 -5.78381,22.4327 -29.39382,43.11417 -56.68992,49.65817 -7.57288,1.8156 -20.80202,2.485 -26.22589,1.3272 z m 78.94672,-24.45377 c 5.28209,-8.5079 10.71987,-21.0849 13.26548,-30.6815 3.33368,-12.5674 3.76138,-31.353397 0.92588,-40.663095 -7.00315,-22.9927 -23.89505,-35.5674 -50.19846,-37.3687 -5.74179,-0.3932 -10.43962,-0.4962 -10.43962,-0.2288 0,0.2674 2.01343,2.5303 4.4743,5.0287 l 4.47429,4.5426 -15.72429,-0.01 c -13.93796,-0.01 -16.56221,0.2662 -23.10001,2.4076 -26.66322,8.7332 -48.725272,39.260798 -56.069502,77.584195 l -1.72474,9 -2.202874,-4.9627 c -4.37512,-9.8563 -9.35935,-24.1313 -10.82837,-31.012797 -1.83559,-8.5985 -1.18994,-34.019098 1.15625,-45.524498 5.19968,-25.4985 22.125984,-36.4962 53.044946,-34.4654 19.8237,1.3021 32.5543,5.1842 40.83095,12.4512 2.05492,1.8042 3.84669,3.108 3.9817,2.8973 3.42978,-5.3524 13.284,-17.1461 17.36703,-20.7853 15.43549,-13.75739956 37.50882,-16.6921996 56.2323,-7.4764996 5.913,2.9103 9.9235,6.0920996 19.8301,15.7326996 18.7975,18.2927 25.0609,27.5567 27.5006,40.6753 3.9679,21.335798 -15.0948,53.704095 -42.3738,71.950795 -10.3298,6.9095 -23.56521,13.49857 -29.25742,14.56557 l -3.88855,0.7289 z m -74.94672,-41.3747 c -10.60421,-2.8754 -22.44896,-9.561397 -31.91823,-18.016697 -3.72061,-3.322198 -3.84844,-3.629098 -2.53449,-6.084198 2.90168,-5.4218 13.84096,-14.3127 23.22929,-18.8795 13.59283,-6.6121 22.65848,-8.7461 37.72343,-8.8801 13.83371,-0.123 19.6797,1.1383 30.43121,6.5656 6.19202,3.1257 15.63784,11.9283 18.84672,17.5633 l 1.77793,3.1222 -7.77793,5.560398 c -10.48068,7.4926 -28.02323,16.128197 -37.68789,18.552397 -9.30229,2.3333 -24.45202,2.5677 -32.09004,0.4966 z"
       id="path879"
       sodipodi:nodetypes="sssscsssscsscsssssssscsssscsssssssscssssssssssssssscsscssssssssscsssscsssscccscssssssscsssssssssssssssssssscssscssssssssssssscssssssssssssssssscsssscsssssccsscssssssssssssccssssssscsss" />
  </g>
</svg>
